# This file uses inches as units for non-parametric coordinates.

mtllib Pyramid_Leather_0006.mtl
g default
v 19.188002 40.826672 -19.302195
v 19.077106 40.715775 -19.188000
v 19.188002 40.716904 -19.078234
v 19.302197 40.826672 -19.188000
v -19.302197 40.826672 -19.188000
v -19.188002 40.715775 -19.077105
v -19.078236 40.716904 -19.188000
v -19.188002 40.826672 -19.302195
v -19.188000 40.826672 19.302197
v -19.077105 40.715775 19.188002
v -19.188000 40.716904 19.078236
v -19.302195 40.826672 19.188002
v 19.302197 40.826672 19.188000
v 19.188002 40.715775 19.077105
v 19.078236 40.716904 19.188000
v 19.188002 40.826672 19.302195
v 19.302193 39.517014 -19.187994
v 19.188002 39.627918 -19.077106
v 19.078238 39.626789 -19.188000
v 19.187996 39.517014 -19.302191
v -19.187996 39.517014 -19.302191
v -19.077108 39.627918 -19.188000
v -19.188002 39.626789 -19.078236
v -19.302193 39.517014 -19.187994
v -19.302191 39.517014 19.187996
v -19.188000 39.627918 19.077108
v -19.078236 39.626789 19.188002
v -19.187994 39.517014 19.302193
v 19.187998 39.517014 19.302191
v 19.077108 39.627918 19.188000
v 19.188002 39.626789 19.078236
v 19.302193 39.517014 19.187994
v 20.350107 39.624443 -20.242590
v 20.235991 39.516937 -20.121878
v 20.117704 39.516937 -20.233902
v 20.242592 39.624443 -20.350105
v -20.242590 39.624443 -20.350105
v -20.121878 39.516937 -20.235989
v -20.233902 39.516937 -20.117702
v -20.350105 39.624443 -20.242590
v -20.350105 39.624443 20.242590
v -20.235989 39.516937 20.121878
v -20.117702 39.516937 20.233902
v -20.242590 39.624443 20.350105
v 20.242592 39.624443 20.350101
v 20.121878 39.516937 20.235985
v 20.233904 39.516937 20.117699
v 20.350107 39.624443 20.242586
v 20.233910 40.826675 -20.117708
v 20.350107 40.716908 -20.240335
v 20.242594 40.719162 -20.350105
v 20.117710 40.826675 -20.233908
v -20.117708 40.826675 -20.233908
v -20.240335 40.716908 -20.350105
v -20.350105 40.719162 -20.242592
v -20.233908 40.826675 -20.117708
v -20.233908 40.826675 20.117708
v -20.350105 40.716908 20.240335
v -20.242592 40.719162 20.350105
v -20.117708 40.826675 20.233906
v 20.117710 40.826675 20.233904
v 20.240337 40.716908 20.350101
v 20.350107 40.719162 20.242588
v 20.233910 40.826675 20.117704
vt 0.832665 0.929325
vt 0.856204 0.929368
vt 0.857475 0.926852
vt 0.832692 0.926826
vt 0.832692 0.926826
vt 0.857475 0.926852
vt 0.860077 0.929348
vt 0.860063 0.055941
vt 0.832666 0.058425
vt 0.857437 0.058436
vt 0.932682 0.929336
vt 0.932617 0.055926
vt 0.857475 0.926851
vt 0.935301 0.926833
vt 0.832666 0.058425
vt 0.857437 0.058436
vt 0.832692 0.926826
vt 0.857475 0.926851
vt 0.932682 0.929336
vt 0.932617 0.055926
vt 0.832666 0.058425
vt 0.857437 0.058436
vt 0.860077 0.929348
vt 0.860063 0.055941
vt 0.882693 0.955794
vt 0.910060 0.955823
vt 0.908841 0.953348
vt 0.883924 0.953353
vt 0.883924 0.953353
vt 0.908841 0.953348
vt 0.911489 0.950509
vt 0.911396 0.034777
vt 0.883909 0.031935
vt 0.908774 0.031963
vt 0.881286 0.950504
vt 0.881293 0.034663
vt 0.908841 0.953348
vt 0.883924 0.953353
vt 0.883909 0.031935
vt 0.908774 0.031963
vt 0.883924 0.953353
vt 0.908841 0.953348
vt 0.881286 0.950504
vt 0.881293 0.034663
vt 0.883909 0.031935
vt 0.908774 0.031963
vt 0.911489 0.950509
vt 0.911396 0.034777
vt 0.932682 0.929336
vt 0.935219 0.931967
vt 0.911489 0.950509
vt 0.935301 0.926833
vt 0.937764 0.929414
vt 0.935206 0.053316
vt 0.914064 0.032168
vt 0.910060 0.955823
vt 0.911396 0.034777
vt 0.932617 0.055926
vt 0.935225 0.058416
vt 0.932617 0.055926
vt 0.911396 0.034777
vt 0.914064 0.032168
vt 0.937740 0.055893
vt 0.937740 0.055893
vt 0.932682 0.929336
vt 0.911489 0.950509
vt 0.910060 0.029513
vt 0.910060 0.029513
vt 0.860077 0.929348
vt 0.881286 0.950504
vt 0.878731 0.953188
vt 0.856204 0.929368
vt 0.860063 0.055941
vt 0.881293 0.034663
vt 0.882693 0.955794
vt 0.857515 0.053305
vt 0.860063 0.055941
vt 0.881293 0.034663
vt 0.856238 0.055875
vt 0.857493 0.931953
vt 0.878730 0.953188
vt 0.882718 0.029468
vt 0.856238 0.055875
vt 0.882718 0.029468
vt 0.881286 0.950504
vt 0.860077 0.929348
vt 0.857515 0.053305
vt 0.878625 0.032081
vt 0.878625 0.032081
vt 0.857475 0.931951
vt 0.935218 0.931967
vt 0.914128 0.953164
vt 0.935206 0.053316
vt 0.914136 0.953154
vt 0.908774 0.031963
vt 0.914128 0.953164
vt 0.883909 0.031935
vt 0.857437 0.058436
vt 0.857493 0.931953
vt 0.935225 0.058416
vt 0.832666 0.058425
vt 0.935300 0.926833
vt 0.832695 0.055902
vt 0.935287 0.931940
vt 0.832664 0.929325
vt 0.935225 0.058416
vt 0.832692 0.926826
vt 0.935225 0.058416
vt 0.832695 0.055901
vt 0.937764 0.929414
vt 0.935300 0.926833
vn -0.000212 0.998991 0.044903
vn -0.045011 0.998986 0.000212
vn 0.239577 0.970877 -0.000463
vn 0.000460 0.970629 -0.240580
vn -0.002773 0.126939 0.991907
vn 0.000212 0.998986 0.045013
vn 0.002762 0.126974 0.991902
vn -0.991902 0.126974 0.002762
vn -0.002762 -0.126968 0.991903
vn -0.991908 -0.126932 0.002773
vn -0.991907 0.126939 -0.002773
vn -0.044901 0.998991 -0.000212
vn 0.044901 0.998991 0.000212
vn -0.000463 0.970874 -0.239588
vn -0.240570 0.970632 -0.000460
vn 0.991907 0.126940 0.002773
vn 0.045011 0.998986 -0.000212
vn 0.991902 0.126975 -0.002762
vn 0.991903 -0.126969 0.002762
vn 0.002773 -0.126932 0.991908
vn 0.000212 0.998991 -0.044904
vn -0.239578 0.970877 0.000463
vn -0.000460 0.970630 0.240578
vn 0.002773 0.126939 -0.991907
vn -0.000212 0.998986 -0.045014
vn -0.002762 0.126974 -0.991902
vn 0.002762 -0.126967 -0.991903
vn 0.991907 -0.126934 -0.002773
vn 0.000463 0.970875 0.239587
vn 0.240568 0.970632 0.000461
vn -0.991903 -0.126967 -0.002762
vn -0.002773 -0.126932 -0.991908
vn -0.044910 -0.998991 0.000212
vn -0.000212 -0.998985 0.045041
vn 0.000445 -0.971148 -0.238478
vn 0.237920 -0.971285 -0.000462
vn -0.045040 -0.998985 -0.000212
vn 0.000212 -0.998991 0.044911
vn 0.045040 -0.998985 0.000212
vn -0.238473 -0.971149 -0.000445
vn -0.000462 -0.971283 -0.237925
vn 0.044910 -0.998991 -0.000212
vn 0.000212 -0.998985 -0.045041
vn -0.000445 -0.971147 0.238480
vn -0.237919 -0.971285 0.000462
vn -0.000212 -0.998991 -0.044910
vn 0.238473 -0.971149 0.000445
vn 0.000462 -0.971283 0.237927
vn 0.998300 -0.058214 -0.002767
vn 0.002787 -0.057446 -0.998345
vn 0.002772 0.057942 -0.998316
vn 0.998274 0.058664 -0.002778
vn 0.998345 -0.057446 0.002787
vn -0.002767 -0.058214 -0.998300
vn -0.998345 -0.057445 -0.002787
vn -0.998316 0.057944 -0.002772
vn -0.002778 0.058664 -0.998274
vn -0.998300 -0.058214 0.002767
vn -0.002787 -0.057446 0.998345
vn -0.002772 0.057943 0.998316
vn -0.998274 0.058665 0.002778
vn 0.002768 -0.058214 0.998300
vn 0.998316 0.057943 0.002772
vn 0.002778 0.058664 0.998274
s 1
g Pyramid_pipe_1 Pyramid_Leather_0006
usemtl lambert3SG
f 1/49/1 4/104/2 49/94/3 52/51/4
f 2/52/5 1/49/1 8/58/6 7/59/7
f 3/105/8 2/17/5 19/18/9 18/72/10
f 4/23/2 3/13/8 14/16/11 13/24/12
f 5/93/13 8/58/6 53/57/14 56/62/15
f 6/102/16 5/11/13 12/12/17 11/100/18
f 7/9/7 6/103/16 23/79/19 22/10/20
f 9/65/21 12/91/17 57/92/22 60/66/23
f 10/111/24 9/65/21 16/60/25 15/108/26
f 11/1/18 10/5/24 27/6/27 26/2/28
f 13/54/12 16/60/25 61/61/29 64/55/30
f 15/21/26 14/109/11 31/83/31 30/22/32
f 17/90/33 20/69/34 35/70/35 34/71/36
f 18/14/10 17/19/33 32/20/37 31/106/31
f 20/69/34 19/18/9 22/10/20 21/73/38
f 21/73/38 24/76/39 39/89/40 38/74/41
f 24/7/39 23/3/19 26/98/28 25/8/42
f 25/80/42 28/86/43 43/85/44 42/81/45
f 28/86/43 27/6/27 30/22/32 29/77/46
f 29/77/46 32/87/37 47/88/47 46/78/48
f 33/75/49 36/41/50 51/42/51 50/56/52
f 34/47/36 33/37/49 48/40/53 47/48/47
f 36/41/50 35/70/35 38/74/41 37/33/54
f 37/33/54 40/82/55 55/68/56 54/34/57
f 40/28/55 39/35/40 42/36/45 41/97/58
f 41/25/58 44/29/59 59/30/60 58/26/61
f 44/29/59 43/85/44 46/78/48 45/45/62
f 45/45/62 48/84/53 63/67/63 62/46/64
f 50/38/52 49/43/3 64/44/30 63/39/63
f 52/51/4 51/42/51 54/34/57 53/57/14
f 56/31/15 55/27/56 58/95/61 57/32/22
f 60/66/23 59/30/60 62/46/64 61/61/29
f 7/9/7 22/10/20 19/18/9 2/17/5
f 11/101/18 26/98/28 23/3/19 6/4/16
f 15/21/26 30/22/32 27/6/27 10/5/24
f 3/13/8 18/107/10 31/15/31 14/16/11
f 21/73/38 38/74/41 35/70/35 20/69/34
f 25/8/42 42/36/45 39/35/40 24/7/39
f 29/77/46 46/78/48 43/85/44 28/86/43
f 17/19/33 34/47/36 47/48/47 32/20/37
f 37/33/54 54/34/57 51/42/51 36/41/50
f 41/97/58 58/95/61 55/27/56 40/28/55
f 45/45/62 62/46/64 59/30/60 44/29/59
f 33/37/49 50/38/52 63/39/63 48/40/53
f 53/57/14 8/58/6 1/49/1 52/51/4
f 57/32/22 12/12/17 5/11/13 56/31/15
f 61/61/29 16/60/25 9/65/21 60/66/23
f 49/43/3 4/23/2 13/24/12 64/44/30
f 1/49/1 2/52/5 3/53/8 4/50/2
f 5/93/13 6/63/16 7/59/7 8/58/6
f 9/65/21 10/111/24 11/110/18 12/91/17
f 13/54/12 14/64/11 15/108/26 16/60/25
f 17/99/33 18/72/10 19/18/9 20/69/34
f 21/73/38 22/10/20 23/79/19 24/76/39
f 25/80/42 26/2/28 27/6/27 28/86/43
f 29/77/46 30/22/32 31/83/31 32/87/37
f 33/75/49 34/71/36 35/70/35 36/41/50
f 37/33/54 38/74/41 39/89/40 40/82/55
f 41/25/58 42/81/45 43/85/44 44/29/59
f 45/45/62 46/78/48 47/88/47 48/84/53
f 49/96/3 50/56/52 51/42/51 52/51/4
f 53/57/14 54/34/57 55/68/56 56/62/15
f 57/92/22 58/26/61 59/30/60 60/66/23
f 61/61/29 62/46/64 63/67/63 64/55/30
g default
v 19.488167 41.812160 -19.607397
v 19.538776 41.956844 -19.538782
v 19.607391 41.812160 -19.488173
v 19.607395 41.812160 19.488169
v 19.538780 41.956844 19.538778
v 19.488171 41.812160 19.607393
v -19.488169 41.812160 19.607395
v -19.538778 41.956844 19.538780
v -19.607393 41.812160 19.488171
v -19.607395 41.812160 -19.488171
v -19.538780 41.956844 -19.538780
v -19.488171 41.812160 -19.607395
v -0.000000 5.471767 -0.114767
v 0.114767 5.471767 -0.000000
v 0.000000 5.471767 0.114767
v -0.114767 5.471767 0.000000
vt 0.038148 0.474594
vt 0.037522 0.476383
vt 0.520769 0.476383
vt 0.520143 0.474594
vt 0.036674 0.474594
vt 0.521617 0.474594
vt 0.278999 0.025191
vt 0.278300 0.024188
vt 0.280024 0.024656
vt 0.038148 0.474594
vt 0.037522 0.476383
vt 0.520769 0.476383
vt 0.520143 0.474594
vt 0.036674 0.474594
vt 0.521617 0.474594
vt 0.278999 0.025191
vt 0.278300 0.024188
vt 0.280024 0.024656
vt 0.518950 0.975236
vt 0.520769 0.476383
vt 0.035704 0.491989
vt 0.518950 0.491990
vt 0.279227 0.024006
vt 0.038148 0.474594
vt 0.520143 0.474594
vt 0.279292 0.025191
vt 0.520143 0.474594
vt 0.520769 0.476384
vt 0.037522 0.476384
vt 0.038148 0.474594
vt 0.279292 0.025191
vt 0.035704 0.975236
vt 0.037522 0.476384
vt 0.278999 0.025191
vt 0.520143 0.474594
vt 0.038148 0.474594
vn 0.007238 -0.466663 -0.884406
vn 0.884406 -0.466663 -0.007238
vn 0.877077 -0.480350 -0.000000
vn -0.000000 -0.480350 -0.877077
vn 0.002972 0.999991 -0.002973
vn -0.007238 -0.466663 -0.884406
vn -0.002972 0.999991 -0.002973
vn 0.002972 0.999991 0.002972
vn 0.884406 -0.466663 0.007238
vn 0.007238 -0.466663 0.884406
vn 0.000000 -0.480350 0.877077
vn -0.002972 0.999991 0.002972
vn -0.007238 -0.466663 0.884406
vn -0.884406 -0.466663 0.007238
vn -0.877077 -0.480350 0.000000
vn -0.884406 -0.466663 -0.007238
s 1
g Pyramid_Leather_0006 Pyramid
usemtl lambert3SG
f 65/116/65 67/112/66 78/145/67 77/119/68
f 66/144/69 65/135/65 76/136/70 75/131/71
f 67/112/66 66/113/69 69/114/72 68/115/73
f 68/115/73 70/117/74 79/120/75 78/145/67
f 70/138/74 69/139/72 72/140/76 71/141/77
f 71/125/77 73/121/78 80/127/79 79/128/75
f 73/121/78 72/122/76 75/123/71 74/124/80
f 74/124/80 76/126/70 77/129/68 80/127/79
f 66/130/69 75/143/71 72/132/76 69/133/72
f 67/147/66 68/146/73 78/118/67
f 70/138/74 71/141/77 79/142/75
f 73/121/78 74/124/80 80/127/79
f 76/136/70 65/135/65 77/137/68
f 65/116/65 66/113/69 67/112/66
f 68/115/73 69/114/72 70/117/74
f 71/125/77 72/122/76 73/121/78
f 74/124/80 75/123/71 76/126/70
f 77/119/68 78/145/67 79/120/75 80/134/79
g default
v -0.654848 39.612228 -19.302195
v -0.543951 39.612228 -19.188000
v -0.654848 0.969727 -19.188000
v -0.543951 1.083920 -19.077105
v -0.545080 1.193687 -19.188000
v -0.654848 1.083920 -19.302195
v -0.654848 1.083923 19.302197
v -0.543951 1.194817 19.188002
v -0.545080 1.083923 19.078236
v -0.654848 0.969727 19.188002
v -0.545080 39.612225 19.188000
v -0.654848 39.612228 19.302195
v 0.545034 39.612225 -19.188000
v 0.654810 39.612228 -19.302191
v 0.654810 1.083927 -19.302191
v 0.543905 1.194813 -19.188000
v 0.545034 1.083920 -19.078236
v 0.654810 0.969730 -19.187994
v 0.654810 0.969730 19.187996
v 0.543905 1.083923 19.077108
v 0.545034 1.193687 19.188002
v 0.654810 1.083927 19.302193
v 0.654810 39.612228 19.302191
v 0.543905 39.612228 19.188000
v 0.654886 39.612236 -20.233902
v 0.547380 39.612236 -20.350105
v 0.547380 0.029331 -20.350105
v 0.654886 0.150043 -20.235989
v 0.654886 0.038021 -20.117702
v 0.547380 -0.078182 -20.242590
v 0.547380 -0.078182 20.242590
v 0.654886 0.035934 20.121878
v 0.654886 0.154221 20.233902
v 0.547380 0.029331 20.350105
v 0.547380 39.612236 20.350101
v 0.654886 39.612236 20.235985
v -0.547338 39.612236 -20.350105
v -0.654852 39.612236 -20.233908
v -0.654852 0.154213 -20.233908
v -0.545084 0.031586 -20.350105
v -0.547338 -0.078182 -20.242592
v -0.654852 0.038013 -20.117708
v -0.654852 0.038013 20.117708
v -0.545084 -0.078182 20.240335
v -0.547338 0.029331 20.350105
v -0.654852 0.154213 20.233906
v -0.654852 39.612236 20.233904
v -0.545084 39.612240 20.350101
vt 0.832664 0.929326
vt 0.856204 0.929368
vt 0.857475 0.926852
vt 0.832692 0.926826
vt 0.832692 0.926826
vt 0.857475 0.926852
vt 0.860077 0.929348
vt 0.860063 0.055941
vt 0.832666 0.058425
vt 0.857437 0.058436
vt 0.932681 0.929336
vt 0.932617 0.055926
vt 0.832692 0.926826
vt 0.857475 0.926852
vt 0.832666 0.058425
vt 0.857437 0.058436
vt 0.882693 0.955794
vt 0.910060 0.955823
vt 0.908841 0.953348
vt 0.883924 0.953353
vt 0.883924 0.953353
vt 0.908841 0.953348
vt 0.911489 0.950509
vt 0.911396 0.034777
vt 0.883909 0.031935
vt 0.908774 0.031963
vt 0.881286 0.950504
vt 0.881293 0.034663
vt 0.883924 0.953353
vt 0.908841 0.953348
vt 0.883909 0.031935
vt 0.908774 0.031963
vt 0.932682 0.929336
vt 0.911489 0.950509
vt 0.935301 0.926833
vt 0.911396 0.034777
vt 0.932617 0.055926
vt 0.935225 0.058416
vt 0.932617 0.055926
vt 0.911396 0.034777
vt 0.914064 0.032168
vt 0.937740 0.055893
vt 0.932681 0.929336
vt 0.911489 0.950509
vt 0.910060 0.029513
vt 0.860077 0.929348
vt 0.881286 0.950504
vt 0.860063 0.055941
vt 0.881293 0.034663
vt 0.857515 0.053305
vt 0.860063 0.055941
vt 0.881293 0.034663
vt 0.856238 0.055875
vt 0.857493 0.931953
vt 0.878731 0.953188
vt 0.882718 0.029468
vt 0.881286 0.950504
vt 0.860077 0.929348
vt 0.878625 0.032081
vt 0.935219 0.931967
vt 0.914128 0.953164
vt 0.935206 0.053316
vt 0.908774 0.031963
vt 0.883909 0.031935
vt 0.857437 0.058436
vt 0.935225 0.058416
vt 0.832666 0.058425
vt 0.935301 0.926833
vt 0.832695 0.055901
vt 0.935225 0.058416
vt 0.937764 0.929414
vt 0.935301 0.926833
vn -0.094909 0.000001 0.995486
vn -0.994611 0.000002 0.103676
vn -0.998960 0.000213 0.045585
vn -0.126816 0.002744 0.991922
vn -0.998991 0.044901 0.000212
vn -0.971412 -0.000469 -0.237401
vn -0.970631 -0.240571 -0.000460
vn -0.126939 0.991907 0.002773
vn -0.998987 0.045011 -0.000212
vn -0.126974 0.991902 -0.002762
vn 0.126967 0.991903 0.002762
vn 0.126772 0.002755 0.991928
vn -0.998966 0.000214 -0.045474
vn -0.970877 -0.239579 0.000463
vn -0.971167 -0.000466 0.238400
vn -0.126781 0.002755 -0.991927
vn -0.994611 -0.000002 -0.103675
vn -0.094915 -0.000001 -0.995485
vn 0.126810 0.002744 -0.991923
vn 0.126932 0.991908 -0.002773
vn 0.994614 -0.000002 0.103645
vn 0.094910 -0.000001 0.995486
vn 0.998965 0.000214 0.045483
vn 0.998985 0.045040 0.000212
vn 0.971149 -0.238472 -0.000445
vn 0.971812 -0.000467 -0.235758
vn 0.998991 0.044910 -0.000212
vn 0.998959 0.000213 -0.045615
vn 0.971680 -0.000450 0.236302
vn 0.971285 -0.237919 0.000462
vn 0.094906 0.000001 -0.995486
vn 0.994614 0.000002 -0.103648
vn 0.095311 0.000002 -0.995448
vn 0.994661 0.000003 -0.103193
vn 0.058305 -0.002830 -0.998295
vn 0.057446 -0.998345 -0.002787
vn -0.057941 -0.998316 -0.002772
vn -0.058756 -0.002840 -0.998268
vn 0.058215 -0.998300 0.002767
vn 0.057533 -0.002850 0.998340
vn -0.058035 -0.002834 0.998311
vn -0.058663 -0.998274 0.002778
vn 0.994661 -0.000003 0.103201
vn 0.095307 -0.000002 0.995448
vn -0.994542 -0.000003 -0.104338
vn -0.096072 -0.000003 -0.995374
vn -0.096061 0.000003 0.995376
vn -0.994541 0.000003 0.104346
s 1
g Pyramid_Leather_0006 Pyramid_pipe_4
usemtl lambert3SG
f 82/182/81 81/180/82 86/184/83 85/185/84
f 83/209/85 86/184/83 119/183/86 122/188/87
f 84/215/88 83/158/85 90/159/89 89/213/90
f 85/156/84 84/216/88 97/200/91 96/157/92
f 87/190/93 90/207/89 123/208/94 126/191/95
f 88/219/96 87/190/93 92/186/97 91/217/98
f 89/148/90 88/152/96 101/153/99 100/149/100
f 94/193/101 93/161/102 96/157/92 95/195/103
f 95/195/103 98/197/104 109/206/105 108/196/106
f 98/154/104 97/150/91 100/212/100 99/155/107
f 99/201/107 102/205/108 113/204/109 112/202/110
f 102/205/108 101/153/99 104/163/111 103/198/112
f 106/176/113 105/194/114 108/196/106 107/172/115
f 107/172/115 110/203/116 121/192/117 120/173/118
f 110/167/116 109/174/105 112/175/110 111/211/119
f 111/164/119 114/168/120 125/169/121 124/165/122
f 114/168/120 113/204/109 116/199/123 115/178/124
f 118/181/125 117/177/126 120/173/118 119/183/86
f 122/170/87 121/166/117 124/210/122 123/171/94
f 126/191/95 125/169/121 128/179/127 127/187/128
f 85/156/84 96/157/92 93/161/102 82/160/81
f 89/214/90 100/212/100 97/150/91 84/151/88
f 91/162/98 104/163/111 101/153/99 88/152/96
f 95/195/103 108/196/106 105/194/114 94/193/101
f 99/155/107 112/175/110 109/174/105 98/154/104
f 103/198/112 116/199/123 113/204/109 102/205/108
f 107/172/115 120/173/118 117/177/126 106/176/113
f 111/211/119 124/210/122 121/166/117 110/167/116
f 115/178/124 128/179/127 125/169/121 114/168/120
f 119/183/86 86/184/83 81/180/82 118/181/125
f 123/171/94 90/159/89 83/158/85 122/170/87
f 127/187/128 92/186/97 87/190/93 126/191/95
f 83/209/85 84/189/88 85/185/84 86/184/83
f 87/190/93 88/219/96 89/218/90 90/207/89
f 95/195/103 96/157/92 97/200/91 98/197/104
f 99/201/107 100/149/100 101/153/99 102/205/108
f 107/172/115 108/196/106 109/206/105 110/203/116
f 111/164/119 112/202/110 113/204/109 114/168/120
f 119/183/86 120/173/118 121/192/117 122/188/87
f 123/208/94 124/165/122 125/169/121 126/191/95
g default
v 19.302195 39.648384 -0.654848
v 19.188000 39.648384 -0.543951
v 19.188000 0.969727 -0.654848
v 19.077105 1.083920 -0.543951
v 19.188000 1.193687 -0.545080
v 19.302195 1.083920 -0.654848
v -19.302197 1.083923 -0.654848
v -19.188002 1.194817 -0.543951
v -19.078236 1.083923 -0.545080
v -19.188002 0.969727 -0.654848
v -19.188000 39.648384 -0.545080
v -19.302195 39.648384 -0.654848
v 19.188000 39.648384 0.545034
v 19.302191 39.648384 0.654810
v 19.302191 1.083927 0.654810
v 19.188000 1.194813 0.543905
v 19.078236 1.083920 0.545034
v 19.187994 0.969730 0.654810
v -19.187996 0.969730 0.654810
v -19.077108 1.083923 0.543905
v -19.188002 1.193687 0.545034
v -19.302193 1.083927 0.654810
v -19.302191 39.648384 0.654810
v -19.188000 39.648384 0.543905
v 20.233902 39.648384 0.654886
v 20.350105 39.648384 0.547380
v 20.350105 0.029331 0.547380
v 20.235989 0.150043 0.654886
v 20.117702 0.038021 0.654886
v 20.242590 -0.078182 0.547380
v -20.242590 -0.078182 0.547380
v -20.121878 0.035934 0.654886
v -20.233902 0.154221 0.654886
v -20.350105 0.029331 0.547380
v -20.350101 39.648384 0.547380
v -20.235985 39.648384 0.654886
v 20.350105 39.648384 -0.547338
v 20.233908 39.648384 -0.654852
v 20.233908 0.154213 -0.654852
v 20.350105 0.031586 -0.545084
v 20.242592 -0.078182 -0.547338
v 20.117708 0.038013 -0.654852
v -20.117708 0.038013 -0.654852
v -20.240335 -0.078182 -0.545084
v -20.350105 0.029331 -0.547338
v -20.233906 0.154213 -0.654852
v -20.233904 39.648384 -0.654852
v -20.350101 39.648384 -0.545084
vt 0.832664 0.929326
vt 0.856204 0.929368
vt 0.857475 0.926852
vt 0.832692 0.926826
vt 0.832692 0.926826
vt 0.857475 0.926852
vt 0.860077 0.929348
vt 0.860063 0.055941
vt 0.832666 0.058425
vt 0.857437 0.058436
vt 0.932681 0.929336
vt 0.932617 0.055926
vt 0.832692 0.926826
vt 0.857475 0.926852
vt 0.832666 0.058425
vt 0.857437 0.058436
vt 0.882693 0.955794
vt 0.910060 0.955823
vt 0.908841 0.953348
vt 0.883924 0.953353
vt 0.883924 0.953353
vt 0.908841 0.953348
vt 0.911489 0.950509
vt 0.911396 0.034777
vt 0.883909 0.031935
vt 0.908774 0.031963
vt 0.881286 0.950504
vt 0.881293 0.034663
vt 0.883924 0.953353
vt 0.908841 0.953348
vt 0.883909 0.031935
vt 0.908774 0.031963
vt 0.932682 0.929336
vt 0.911489 0.950509
vt 0.935301 0.926833
vt 0.911396 0.034777
vt 0.932617 0.055926
vt 0.935225 0.058416
vt 0.932617 0.055926
vt 0.911396 0.034777
vt 0.914064 0.032168
vt 0.937740 0.055893
vt 0.932681 0.929336
vt 0.911489 0.950509
vt 0.910060 0.029513
vt 0.860077 0.929348
vt 0.881286 0.950504
vt 0.860063 0.055941
vt 0.881293 0.034663
vt 0.857515 0.053305
vt 0.860063 0.055941
vt 0.881293 0.034663
vt 0.856238 0.055875
vt 0.857493 0.931953
vt 0.878731 0.953188
vt 0.882718 0.029468
vt 0.881286 0.950504
vt 0.860077 0.929348
vt 0.878625 0.032081
vt 0.935219 0.931967
vt 0.914128 0.953164
vt 0.935206 0.053316
vt 0.908774 0.031963
vt 0.883909 0.031935
vt 0.857437 0.058436
vt 0.935225 0.058416
vt 0.832666 0.058425
vt 0.935301 0.926833
vt 0.832695 0.055901
vt 0.935225 0.058416
vt 0.937764 0.929414
vt 0.935301 0.926833
vn -0.995486 0.000001 -0.094908
vn -0.103678 0.000002 -0.994611
vn -0.045586 0.000213 -0.998960
vn -0.991923 0.002741 -0.126815
vn -0.000212 0.044901 -0.998991
vn 0.237401 -0.000468 -0.971412
vn 0.000460 -0.240571 -0.970631
vn -0.002773 0.991907 -0.126939
vn 0.000212 0.045011 -0.998987
vn 0.002762 0.991902 -0.126974
vn -0.002762 0.991903 0.126967
vn -0.991928 0.002752 0.126771
vn 0.045475 0.000214 -0.998965
vn -0.000463 -0.239579 -0.970877
vn -0.238400 -0.000465 -0.971167
vn 0.991927 0.002752 -0.126778
vn 0.103678 -0.000002 -0.994611
vn 0.995486 -0.000001 -0.094912
vn 0.991924 0.002741 0.126808
vn 0.002773 0.991908 0.126932
vn -0.103648 -0.000002 0.994614
vn -0.995486 -0.000001 0.094908
vn -0.045484 0.000213 0.998965
vn -0.000212 0.045040 0.998985
vn 0.000445 -0.238472 0.971149
vn 0.235757 -0.000467 0.971812
vn 0.000212 0.044910 0.998991
vn 0.045616 0.000213 0.998959
vn -0.236302 -0.000450 0.971680
vn -0.000462 -0.237919 0.971285
vn 0.995486 0.000001 0.094904
vn 0.103650 0.000002 0.994614
vn 0.995448 0.000002 0.095311
vn 0.103191 0.000003 0.994662
vn 0.998295 -0.002828 0.058305
vn 0.002787 -0.998345 0.057446
vn 0.002772 -0.998316 -0.057941
vn 0.998268 -0.002838 -0.058756
vn -0.002767 -0.998300 0.058215
vn -0.998340 -0.002847 0.057533
vn -0.998311 -0.002832 -0.058035
vn -0.002778 -0.998274 -0.058663
vn -0.103200 -0.000003 0.994661
vn -0.995448 -0.000002 0.095307
vn 0.104337 -0.000003 -0.994542
vn 0.995374 -0.000003 -0.096072
vn -0.995375 0.000003 -0.096062
vn -0.104343 0.000003 -0.994541
s 1
g Pyramid_Leather_0006 Pyramid_pipe_5
usemtl lambert3SG
f 130/254/129 129/252/130 134/256/131 133/257/132
f 131/281/133 134/256/131 167/255/134 170/260/135
f 132/287/136 131/230/133 138/231/137 137/285/138
f 133/228/132 132/288/136 145/272/139 144/229/140
f 135/262/141 138/279/137 171/280/142 174/263/143
f 136/291/144 135/262/141 140/258/145 139/289/146
f 137/220/138 136/224/144 149/225/147 148/221/148
f 142/265/149 141/233/150 144/229/140 143/267/151
f 143/267/151 146/269/152 157/278/153 156/268/154
f 146/226/152 145/222/139 148/284/148 147/227/155
f 147/273/155 150/277/156 161/276/157 160/274/158
f 150/277/156 149/225/147 152/235/159 151/270/160
f 154/248/161 153/266/162 156/268/154 155/244/163
f 155/244/163 158/275/164 169/264/165 168/245/166
f 158/239/164 157/246/153 160/247/158 159/283/167
f 159/236/167 162/240/168 173/241/169 172/237/170
f 162/240/168 161/276/157 164/271/171 163/250/172
f 166/253/173 165/249/174 168/245/166 167/255/134
f 170/242/135 169/238/165 172/282/170 171/243/142
f 174/263/143 173/241/169 176/251/175 175/259/176
f 133/228/132 144/229/140 141/233/150 130/232/129
f 137/286/138 148/284/148 145/222/139 132/223/136
f 139/234/146 152/235/159 149/225/147 136/224/144
f 143/267/151 156/268/154 153/266/162 142/265/149
f 147/227/155 160/247/158 157/246/153 146/226/152
f 151/270/160 164/271/171 161/276/157 150/277/156
f 155/244/163 168/245/166 165/249/174 154/248/161
f 159/283/167 172/282/170 169/238/165 158/239/164
f 163/250/172 176/251/175 173/241/169 162/240/168
f 167/255/134 134/256/131 129/252/130 166/253/173
f 171/243/142 138/231/137 131/230/133 170/242/135
f 175/259/176 140/258/145 135/262/141 174/263/143
f 131/281/133 132/261/136 133/257/132 134/256/131
f 135/262/141 136/291/144 137/290/138 138/279/137
f 143/267/151 144/229/140 145/272/139 146/269/152
f 147/273/155 148/221/148 149/225/147 150/277/156
f 155/244/163 156/268/154 157/278/153 158/275/164
f 159/236/167 160/274/158 161/276/157 162/240/168
f 167/255/134 168/245/166 169/264/165 170/260/135
f 171/280/142 172/237/170 173/241/169 174/263/143
